<?xml version="1.0" standalone="no"?>
<!DOCTYPE svg PUBLIC "-//W3C//DTD SVG 20010904//EN"
 "http://www.w3.org/TR/2001/REC-SVG-20010904/DTD/svg10.dtd">
<svg version="1.0" xmlns="http://www.w3.org/2000/svg"
 width="1024.000000pt" height="1024.000000pt" viewBox="0 0 1024.000000 1024.000000"
 preserveAspectRatio="xMidYMid meet">
<metadata>
Created by potrace 1.14, written by Peter Selinger 2001-2017
</metadata>
<g transform="translate(0.000000,1024.000000) scale(0.100000,-0.100000)"
fill="#000000" stroke="none">
<path d="M1806 10230 c-16 -5 -33 -7 -38 -4 -4 3 -8 1 -8 -3 0 -5 -10 -10 -22
-10 -13 -1 -61 -21 -108 -44 -66 -33 -102 -60 -161 -120 -43 -43 -88 -100
-103 -130 -15 -30 -31 -61 -35 -69 -11 -20 -32 -85 -39 -124 -11 -55 -4 -291
8 -291 1 0 3 -7 5 -16 5 -26 71 -162 91 -188 56 -71 116 -127 173 -164 36 -23
68 -41 73 -40 4 2 8 -2 8 -9 0 -6 3 -8 6 -5 4 3 16 1 28 -5 11 -7 24 -13 29
-14 4 -1 8 -2 10 -4 1 -1 9 -3 17 -5 8 -2 29 -6 45 -10 26 -6 46 -8 122 -14 6
-1 10 -14 9 -31 -1 -16 1 -30 5 -30 4 0 4 -13 -1 -30 -5 -16 -6 -30 -2 -30 8
0 7 -74 -1 -87 -3 -5 -2 -15 3 -23 5 -8 5 -21 0 -31 -5 -9 -7 -19 -3 -22 3 -3
7 -46 9 -94 4 -116 17 -256 30 -323 2 -14 7 -38 9 -55 3 -16 10 -52 15 -80 10
-48 14 -68 26 -125 3 -14 7 -30 8 -37 1 -7 5 -16 9 -19 4 -4 7 -17 7 -28 0
-57 181 -535 218 -578 8 -10 12 -18 8 -18 -12 0 160 -302 176 -308 4 -2 8 -8
8 -14 0 -12 150 -221 162 -226 4 -2 8 -10 8 -18 0 -8 3 -14 8 -14 4 0 27 -26
52 -57 38 -49 822 -843 1378 -1396 89 -89 161 -165 160 -169 -2 -4 -331 -337
-733 -741 -401 -403 -744 -748 -761 -767 -28 -33 -110 -132 -127 -155 -22 -30
-68 -91 -75 -100 -74 -96 -295 -483 -303 -533 -1 -4 -8 -16 -15 -27 -8 -11
-14 -27 -14 -37 0 -10 -4 -18 -8 -18 -5 0 -9 -6 -9 -12 0 -7 -7 -29 -16 -48
-42 -89 -139 -411 -161 -535 -3 -16 -8 -41 -11 -55 -8 -41 -15 -83 -21 -130
-3 -25 -7 -52 -9 -60 -7 -27 -19 -183 -19 -262 -1 -43 -4 -78 -8 -78 -4 0 -4
-11 1 -23 5 -13 5 -30 1 -37 -5 -8 -5 -21 0 -30 5 -9 5 -22 0 -30 -5 -8 -5
-21 0 -30 5 -9 5 -22 0 -30 -4 -7 -5 -22 -1 -33 4 -11 6 -30 3 -43 -4 -25 -28
-39 -37 -23 -4 5 -11 6 -18 2 -6 -4 -23 -8 -37 -10 -70 -9 -139 -32 -215 -71
-86 -45 -211 -166 -249 -243 -15 -30 -31 -61 -35 -69 -11 -20 -32 -85 -39
-124 -11 -55 -4 -291 8 -291 1 0 3 -8 5 -17 6 -32 85 -188 95 -188 6 0 10 -6
10 -12 0 -18 94 -108 157 -152 29 -20 55 -36 57 -36 2 0 21 -8 42 -17 22 -9
42 -18 47 -19 4 -1 8 -2 10 -4 1 -1 9 -3 17 -5 8 -2 29 -7 45 -11 36 -10 6603
-12 6660 -2 44 8 131 38 155 53 8 5 18 10 22 10 4 0 35 20 69 45 134 98 220
229 257 395 8 38 8 210 0 250 -4 17 -12 47 -18 67 -6 21 -10 40 -8 42 2 2 -6
13 -16 25 -11 12 -16 21 -13 21 18 0 -66 113 -129 176 -51 51 -96 84 -153 112
-45 23 -82 41 -84 41 -1 -1 -22 4 -46 11 -37 10 -93 17 -150 19 -8 1 -12 4 -8
7 3 3 2 17 -3 30 -6 14 -6 26 1 29 6 4 6 13 0 23 -5 9 -5 26 0 39 5 13 4 25
-1 28 -6 3 -6 15 0 30 5 14 5 27 0 30 -5 3 -5 18 0 34 4 16 6 32 3 35 -3 2 -7
44 -9 93 -5 124 -11 204 -18 233 -3 14 -7 43 -10 65 -6 50 -16 114 -21 140 -3
11 -10 43 -15 70 -6 28 -13 59 -15 70 -11 52 -69 249 -96 325 -33 92 -36 101
-68 172 -12 26 -21 51 -21 54 0 20 -179 357 -192 362 -4 2 -8 8 -8 13 0 16
-174 271 -215 315 -5 6 -21 26 -35 44 -14 18 -41 51 -60 74 -28 34 -1367 1383
-1480 1492 l-35 33 687 688 c377 379 706 708 730 733 60 62 215 245 228 271 7
11 19 29 28 39 33 37 138 194 167 250 10 19 21 37 24 40 4 3 26 42 50 88 23
46 49 96 57 110 17 33 84 181 84 186 0 2 8 21 17 42 9 22 18 48 20 58 2 11 8
25 14 33 6 7 9 13 6 13 -3 0 1 17 9 37 9 20 18 44 20 52 2 9 17 63 34 121 38
129 85 361 95 465 2 17 6 57 10 90 14 137 19 310 9 326 -3 5 -1 9 5 9 6 0 6
11 1 30 -5 17 -5 30 0 30 5 0 5 13 0 30 -5 17 -5 30 0 30 5 0 5 13 0 29 -10
35 -1 41 75 47 54 5 148 29 180 47 11 6 23 11 26 12 22 1 147 96 189 143 47
51 112 149 108 162 -1 3 6 19 15 35 40 70 57 266 32 370 -4 17 -8 37 -10 45
-2 8 -4 16 -5 18 -2 1 -3 5 -4 10 -1 4 -10 24 -19 46 -9 21 -17 40 -17 42 0 2
-16 28 -36 57 -44 63 -134 157 -151 157 -7 0 -13 4 -13 10 0 10 -156 89 -188
95 -9 2 -17 4 -17 5 0 16 -6627 25 -6679 10z m1750 -1273 c4 -3 17 -2 30 3 14
6 26 6 29 0 3 -6 15 -6 30 0 15 6 27 6 30 0 4 -6 13 -7 24 -1 10 6 23 6 31 1
8 -5 21 -5 30 0 9 5 21 5 27 2 13 -8 81 -7 90 2 3 3 13 1 22 -4 10 -5 23 -5
31 0 8 5 21 5 31 0 9 -5 19 -7 23 -3 8 9 126 9 126 1 0 -4 11 -3 25 2 15 6 26
6 30 0 4 -6 13 -7 24 -1 10 6 23 6 31 1 8 -5 21 -5 30 0 9 5 22 5 30 0 8 -5
18 -6 24 -3 13 9 126 9 126 1 0 -4 11 -3 25 2 15 6 26 6 30 0 4 -6 13 -7 24
-1 10 6 23 6 31 1 8 -5 21 -5 30 0 9 5 22 5 30 0 8 -5 18 -6 24 -3 13 9 126 9
126 1 0 -4 11 -3 25 2 15 6 26 6 30 0 4 -6 13 -7 24 -1 10 6 23 6 31 1 8 -5
21 -5 30 0 9 5 22 5 30 0 8 -5 18 -6 24 -3 13 9 126 9 126 1 0 -4 10 -4 23 0
25 9 74 8 83 -1 3 -3 17 -2 30 3 14 6 26 6 29 0 3 -5 15 -6 28 -1 12 5 32 5
44 0 13 -5 25 -4 28 1 3 6 15 6 30 0 15 -6 25 -6 25 0 0 5 12 5 30 0 17 -5 32
-5 35 0 3 5 16 5 30 0 15 -6 27 -6 30 0 3 6 15 6 30 0 15 -6 27 -6 30 0 3 6
15 6 30 0 15 -6 25 -6 25 0 0 5 12 5 30 0 17 -5 32 -5 35 0 3 5 16 5 30 0 15
-6 27 -6 30 0 3 6 15 6 30 0 15 -6 27 -6 30 0 3 6 15 6 30 0 15 -6 25 -6 25 0
0 5 12 5 30 0 17 -5 32 -5 35 0 3 5 16 5 30 0 15 -6 27 -6 30 0 3 6 15 6 30 0
15 -6 27 -6 30 0 3 6 15 6 30 0 15 -6 25 -6 25 0 0 5 12 5 30 0 17 -5 32 -5
35 0 3 5 16 5 30 0 15 -6 27 -6 30 0 3 6 15 6 30 0 15 -6 27 -6 30 0 3 6 15 6
30 0 15 -6 25 -6 25 0 0 5 12 5 30 0 17 -5 32 -5 35 0 3 5 16 5 30 0 15 -6 27
-6 30 0 3 6 15 6 29 0 13 -5 27 -6 30 -3 9 9 66 9 66 1 0 -4 6 -5 14 -2 22 8
226 10 226 2 0 -4 11 -3 25 2 15 6 26 6 30 0 4 -6 13 -7 24 -1 10 6 23 6 31 1
8 -5 21 -5 30 0 9 5 22 5 30 0 8 -5 18 -6 22 -4 7 5 13 -28 8 -51 -1 -8 -1
-70 1 -127 1 -29 -11 -245 -15 -268 -2 -14 -7 -47 -11 -73 -6 -45 -12 -77 -19
-102 -2 -5 -6 -28 -11 -50 -4 -22 -10 -44 -14 -50 -3 -5 -7 -19 -8 -30 -4 -25
-46 -148 -53 -155 -3 -3 -6 -12 -8 -20 -6 -26 -72 -167 -110 -232 -61 -106
-73 -120 -98 -115 -13 2 -24 1 -24 -2 0 -3 -31 -6 -70 -6 -38 0 -70 3 -70 6 0
4 -16 3 -35 -1 -19 -4 -35 -4 -35 0 0 5 -12 5 -27 1 -16 -4 -40 -4 -55 0 -16
4 -28 5 -28 1 0 -4 -31 -7 -70 -7 -38 0 -70 3 -70 6 0 4 -16 3 -35 -1 -19 -4
-35 -4 -35 0 0 5 -12 5 -27 1 -16 -4 -40 -4 -55 0 -16 4 -28 5 -28 1 0 -4 -31
-7 -70 -7 -38 0 -70 3 -70 6 0 4 -16 3 -35 -1 -19 -4 -35 -4 -35 0 0 5 -12 5
-27 1 -16 -4 -40 -4 -55 0 -16 4 -28 5 -28 1 0 -4 -31 -7 -70 -7 -38 0 -70 3
-70 6 0 4 -16 3 -35 -1 -19 -4 -35 -4 -35 0 0 5 -12 5 -27 1 -16 -4 -40 -4
-55 0 -16 4 -28 5 -28 1 0 -4 -31 -7 -70 -7 -38 0 -70 3 -70 6 0 4 -16 3 -35
-1 -19 -4 -35 -4 -35 0 0 5 -12 5 -27 1 -29 -7 -76 -6 -100 3 -7 3 -13 2 -13
-2 0 -4 -29 -7 -65 -7 -36 0 -65 3 -65 7 0 4 -13 3 -30 -2 -17 -5 -30 -5 -30
0 0 5 -13 5 -30 0 -17 -5 -30 -5 -30 0 0 5 -13 5 -30 0 -17 -5 -30 -5 -30 0 0
5 -13 5 -30 0 -17 -5 -30 -5 -30 0 0 5 -13 5 -30 0 -17 -5 -30 -5 -30 0 0 5
-13 5 -30 0 -17 -5 -30 -5 -30 0 0 5 -13 5 -30 0 -17 -5 -30 -5 -30 0 0 5 -13
5 -30 0 -17 -5 -30 -5 -30 0 0 5 -13 5 -30 0 -17 -5 -30 -5 -30 0 0 5 -13 5
-30 0 -17 -5 -30 -5 -30 0 0 5 -13 5 -30 0 -17 -5 -30 -5 -30 0 0 5 -13 5 -30
0 -17 -5 -30 -5 -30 0 0 5 -13 5 -30 0 -17 -5 -30 -5 -30 0 0 5 -13 5 -30 0
-17 -5 -30 -5 -30 0 0 5 -13 5 -30 0 -17 -5 -30 -5 -30 0 0 5 -13 5 -30 0 -17
-5 -30 -5 -30 0 0 5 -13 5 -30 0 -17 -5 -30 -5 -30 0 0 5 -13 5 -30 0 -19 -5
-30 -5 -30 1 0 6 -5 7 -11 4 -6 -4 -43 -7 -84 -7 -41 0 -78 3 -84 7 -6 3 -11
2 -11 -4 0 -6 -11 -6 -29 -1 -15 4 -34 4 -42 0 -7 -5 -17 -6 -22 -3 -6 3 -19
6 -29 7 -54 3 -230 415 -274 641 -4 22 -8 42 -9 45 -1 5 -15 96 -21 140 -4 23
-16 242 -16 265 3 88 3 142 2 150 -5 22 1 34 17 37 28 5 333 1 339 -5z m1681
-4859 c61 -62 319 -320 572 -572 254 -253 461 -464 461 -470 0 -5 2 -7 5 -4 6
5 244 -232 292 -291 15 -19 40 -48 56 -65 15 -17 27 -33 27 -37 0 -3 13 -22
30 -40 34 -39 38 -55 13 -57 -44 -4 -165 -2 -174 3 -5 4 -9 2 -9 -4 0 -6 -11
-6 -30 -1 -17 5 -32 5 -35 0 -3 -5 -16 -5 -28 -1 -12 5 -34 5 -49 0 -16 -4
-28 -4 -28 1 0 4 -16 4 -35 0 -19 -4 -35 -4 -35 0 0 4 -17 4 -37 1 -21 -4 -53
-4 -71 0 -18 3 -35 3 -37 -2 -3 -4 -16 -4 -28 0 -12 5 -34 5 -49 0 -16 -4 -28
-4 -28 1 0 4 -16 4 -35 0 -19 -4 -35 -4 -35 0 0 4 -17 4 -37 1 -21 -4 -53 -4
-71 0 -18 3 -35 3 -37 -2 -3 -4 -16 -4 -28 0 -12 5 -34 5 -49 0 -16 -4 -28 -4
-28 1 0 4 -16 4 -35 0 -19 -4 -35 -4 -35 0 0 4 -17 4 -37 1 -21 -4 -53 -4 -71
0 -18 3 -35 3 -37 -2 -3 -4 -16 -4 -28 0 -12 5 -34 5 -49 0 -16 -4 -28 -4 -28
1 0 4 -16 4 -35 0 -19 -4 -35 -4 -35 0 0 4 -17 4 -37 1 -21 -4 -52 -4 -70 0
-18 3 -35 4 -38 1 -2 -3 -28 -4 -57 -3 -29 1 -59 1 -65 1 -7 0 -20 0 -28 0 -8
0 -22 0 -30 0 -8 0 -22 0 -30 0 -8 0 -22 0 -30 0 -8 0 -22 0 -30 0 -8 0 -22 0
-30 0 -8 0 -22 0 -30 0 -8 0 -22 0 -30 0 -8 0 -22 0 -30 0 -8 0 -22 0 -30 0
-8 0 -22 0 -30 0 -8 0 -22 0 -30 0 -8 0 -22 0 -30 0 -8 0 -22 0 -30 0 -8 0
-22 0 -30 0 -8 0 -22 0 -30 0 -8 0 -22 0 -30 0 -8 0 -22 0 -30 0 -8 0 -22 0
-30 0 -8 0 -22 0 -30 0 -8 0 -22 0 -30 0 -8 0 -22 0 -30 0 -8 0 -22 0 -30 0
-8 0 -22 0 -30 0 -8 0 -22 0 -30 0 -8 0 -22 0 -30 0 -8 0 -22 0 -30 0 -8 0
-22 0 -30 0 -8 0 -22 0 -30 0 -8 0 -22 0 -30 0 -8 0 -22 0 -30 0 -8 0 -22 0
-30 0 -8 0 -22 0 -30 0 -8 0 -22 0 -30 0 -8 0 -22 0 -30 0 -8 0 -22 0 -30 0
-8 0 -22 0 -30 0 -8 0 -22 0 -30 0 -8 0 -22 0 -30 0 -8 0 -22 0 -30 0 -8 0
-22 0 -30 0 -8 0 -22 0 -30 0 -8 0 -22 0 -30 0 -8 0 -22 0 -30 0 -8 0 -22 0
-30 0 -8 0 -22 0 -30 0 -8 0 -22 0 -30 0 -8 0 -22 0 -30 0 -8 0 -21 0 -27 0
-28 -1 -58 5 -61 12 -1 3 13 22 31 42 17 19 32 37 32 40 0 10 292 320 355 378
11 9 281 279 600 598 319 319 582 580 585 580 3 0 56 -51 117 -112z"/>
</g>
</svg>
